<svg width="49" height="49" viewBox="0 0 49 49" fill="none" xmlns="http://www.w3.org/2000/svg">
<path d="M39.4479 11.3561C39.1378 11.1959 38.836 11.0202 38.5435 10.8298C37.693 10.2675 36.9131 9.60491 36.2208 8.85637C34.4886 6.87436 33.8416 4.86363 33.6033 3.45584H33.6129C33.4138 2.2873 33.4961 1.53125 33.5086 1.53125H25.6188V32.0395C25.6188 32.4491 25.6188 32.8539 25.6016 33.254C25.6016 33.3037 25.5968 33.3497 25.5939 33.4033C25.5939 33.4253 25.5939 33.4482 25.5891 33.4712V33.4884C25.506 34.5831 25.1551 35.6405 24.5673 36.5677C23.9796 37.4949 23.173 38.2634 22.2185 38.8057C21.2237 39.3716 20.0985 39.6685 18.954 39.667C15.2781 39.667 12.2988 36.6696 12.2988 32.9678C12.2988 29.266 15.2781 26.2686 18.954 26.2686C19.6499 26.2679 20.3414 26.3774 21.003 26.593L21.0126 18.5597C19.0041 18.3003 16.9637 18.4599 15.02 19.0285C13.0763 19.5971 11.2716 20.5624 9.71964 21.8634C8.35976 23.0449 7.2165 24.4547 6.34132 26.0293C6.00827 26.6036 4.75169 28.911 4.59952 32.6558C4.50382 34.7814 5.14216 36.9835 5.44649 37.8937V37.9128C5.6379 38.4487 6.3796 40.2776 7.58833 41.8194C8.56301 43.0561 9.71455 44.1425 11.0059 45.0436V45.0245L11.025 45.0436C14.8445 47.6391 19.0794 47.4688 19.0794 47.4688C19.8125 47.4391 22.2682 47.4688 25.057 46.1471C28.1501 44.6819 29.9111 42.4989 29.9111 42.4989C31.0361 41.1945 31.9306 39.7081 32.5563 38.1032C33.2703 36.2265 33.5086 33.9756 33.5086 33.076V16.8906C33.6043 16.9481 34.879 17.7912 34.879 17.7912C34.879 17.7912 36.7156 18.9684 39.5809 19.7349C41.6366 20.2804 44.4063 20.3953 44.4063 20.3953V12.5629C43.4359 12.6682 41.4653 12.362 39.4479 11.3561V11.3561Z" fill="white"/>
</svg>
