<svg width="50" height="50" viewBox="0 0 50 50" fill="none" xmlns="http://www.w3.org/2000/svg">
<path d="M20.8337 31.2494L31.6462 24.9994L20.8337 18.7493V31.2494ZM44.917 14.9368C45.1878 15.916 45.3753 17.2285 45.5003 18.8952C45.6462 20.5618 45.7087 21.9993 45.7087 23.2493L45.8337 24.9994C45.8337 29.5619 45.5003 32.916 44.917 35.0619C44.3962 36.9369 43.1878 38.1452 41.3128 38.666C40.3337 38.9369 38.542 39.1244 35.792 39.2494C33.0837 39.3952 30.6045 39.4577 28.3128 39.4577L25.0003 39.5827C16.2712 39.5827 10.8337 39.2494 8.68783 38.666C6.81283 38.1452 5.60449 36.9369 5.08366 35.0619C4.81283 34.0827 4.62533 32.7702 4.50033 31.1035C4.35449 29.4369 4.29199 27.9994 4.29199 26.7494L4.16699 24.9994C4.16699 20.4368 4.50033 17.0827 5.08366 14.9368C5.60449 13.0618 6.81283 11.8535 8.68783 11.3327C9.66699 11.0618 11.4587 10.8743 14.2087 10.7493C16.917 10.6035 19.3962 10.541 21.6878 10.541L25.0003 10.416C33.7295 10.416 39.167 10.7493 41.3128 11.3327C43.1878 11.8535 44.3962 13.0618 44.917 14.9368V14.9368Z" fill="white"/>
</svg>
